#!OML:ASF E:\Steps\Project 1\Capture day 1\Session 2\Subject.ASF
:FULLY-SPECIFIED
:DEGREES
524
root 9.55359 16.2593 13.2155 -157.105 -0.0550093 175.501
lowerback -27.9698 -2.36651 -9.24427
upperback -2.71116 -0.959119 -1.33311
thorax 12.5814 -1.26206 3.34564
lowerneck 3.04385 -3.49157 -2.40537
upperneck -13.0447 -3.53305 6.8232
head -4.21131 -1.7574 2.62664
rclavicle -7.33018e-015 -2.3059e-014
rhumerus -31.3571 -16.2296 -83.2414
rradius 28.0143
rwrist 1.37181
rhand -8.97566 -50.6178
rfingers 7.12502
rthumb 16.9699 -79.8965
lclavicle -7.33018e-015 -2.3059e-014
lhumerus -25.8804 -1.1561 88.1007
lradius 17.3305
lwrist -7.62754
lhand -24.6271 -11.8999
lfingers 7.12502
lthumb 1.87171 18.0716
rfemur -17.8254 7.65977 14.0904
rtibia 7.11246
rfoot -20.8443 -7.6496
rtoes -23.3722
lfemur -18.4486 -10.8526 -23.7404
ltibia 7.59363
lfoot -8.72772 2.24183
ltoes -43.7081
525
root 9.55679 16.2586 13.214 -157.093 -0.0272791 175.486
lowerback -28.004 -2.36782 -9.29816
upperback -2.72496 -0.944525 -1.35544
thorax 12.5809 -1.2598 3.35539
lowerneck 3.00316 -3.6771 -2.21083
upperneck -13.2823 -3.71315 6.96747
head -4.26891 -1.85296 2.64881
rclavicle 8.32411e-015 -1.78906e-014
rhumerus -31.3746 -16.1616 -83.3678
rradius 28.1142
rwrist 1.35462
rhand -8.48676 -52.1311
rfingers 7.12502
rthumb 17.4404 -81.3688
lclavicle 8.32411e-015 -1.78906e-014
lhumerus -25.9831 -1.42754 88.1238
lradius 17.4749
lwrist -7.29931
lhand -24.6194 -11.8669
lfingers 7.12502
lthumb 1.87912 18.1046
rfemur -17.7817 7.61921 14.0887
rtibia 6.97086
rfoot -20.7178 -7.66526
rtoes -23.928
lfemur -18.4549 -10.8349 -23.755
ltibia 7.62471
lfoot -8.74806 2.25121
ltoes -43.7432
526
root 9.55838 16.2586 13.2117 -157.063 -0.030346 175.498
lowerback -28.1596 -2.38622 -9.32417
upperback -2.34727 -0.939907 -1.24864
thorax 12.31 -1.24813 3.28069
lowerneck 3.17875 -3.49453 -2.36926
upperneck -13.0539 -3.53387 6.86669
head -4.23667 -1.76591 2.63708
rclavicle 1.16786e-015 -1.59028e-015
rhumerus -31.3604 -16.1415 -83.4225
rradius 28.1744
rwrist 1.53984
rhand -8.39159 -51.3808
rfingers 7.12502
rthumb 17.532 -80.6103
lclavicle 1.16786e-015 -1.59028e-015
lhumerus -26.06 -1.45762 88.1127
lradius 17.5764
lwrist -7.218
lhand -24.6589 -11.9124
lfingers 7.12502
lthumb 1.84104 18.0594
rfemur -17.7487 7.49752 14.1172
rtibia 6.83461
rfoot -20.6266 -7.54959
rtoes -24.1772
lfemur -18.491 -10.7839 -23.7343
ltibia 7.63409
lfoot -8.77104 2.19806
ltoes -43.6947
527
root 9.55945 16.2586 13.2081 -157.064 -0.0478423 175.522
lowerback -28.2368 -2.40854 -9.30337
upperback -2.32558 -0.965862 -1.23057
thorax 12.3734 -1.26142 3.27719
lowerneck 3.09606 -3.67861 -2.25553
upperneck -13.295 -3.72137 6.98503
head -4.28662 -1.85945 2.66417
rclavicle -2.98177e-015 -6.75868e-015
rhumerus -31.2553 -16.0801 -83.4982
rradius 28.0683
rwrist 1.42525
rhand -8.43141 -52.2819
rfingers 7.12502
rthumb 17.4937 -81.5148
lclavicle -2.98177e-015 -6.75868e-015
lhumerus -26.1206 -1.44568 88.1187
lradius 17.6842
lwrist -7.08387
lhand -24.6369 -11.8847
lfingers 7.12502
lthumb 1.86223 18.0869
rfemur -17.7142 7.37875 14.1676
rtibia 6.8057
rfoot -20.6363 -7.3955
rtoes -23.9372
lfemur -18.4652 -10.8643 -23.6881
ltibia 7.60073
lfoot -8.76904 2.21082
ltoes -43.4818
528
root 9.56103 16.2591 13.2037 -157.122 -0.0295425 175.523
lowerback -28.2257 -2.40862 -9.33546
upperback -2.33215 -0.959016 -1.2283
thorax 12.3598 -1.25975 3.29954
lowerneck 3.22593 -3.47503 -2.4137
upperneck -12.901 -3.53275 6.87572
head -4.1972 -1.76959 2.64569
rclavicle 1.35919e-014 -8.98507e-014
rhumerus -31.2538 -16.0143 -83.5673
rradius 28.0046
rwrist 1.22865
rhand -9.08729 -50.3673
rfingers 7.12502
rthumb 16.8624 -79.6552
lclavicle 1.35919e-014 -8.98507e-014
lhumerus -26.2843 -1.5654 88.1617
lradius 17.8396
lwrist -6.85284
lhand -24.5023 -11.7548
lfingers 7.12502
lthumb 1.99224 18.2156
rfemur -17.6145 7.38855 14.1869
rtibia 6.77126
rfoot -20.645 -7.40328
rtoes -23.8892
lfemur -18.3542 -11.0043 -23.6806
ltibia 7.54503
lfoot -8.77488 2.30412
ltoes -43.2039
529
root 9.56129 16.2599 13.2024 -157.172 0.0142185 175.512
lowerback -28.1749 -2.39083 -9.36344
upperback -2.34845 -0.93458 -1.23643
thorax 12.3148 -1.24847 3.31619
lowerneck 3.04643 -3.63148 -2.28477
upperneck -12.8248 -3.71831 6.97568
head -4.13553 -1.86556 2.65714
rclavicle 4.42296e-015 -1.74931e-014
rhumerus -31.3285 -16.0025 -83.5844
rradius 28.0379
rwrist 1.19523
rhand -8.46817 -52.3067
rfingers 7.12502
rthumb 17.4583 -81.5427
lclavicle 4.42296e-015 -1.74931e-014
lhumerus -26.3786 -1.47097 88.1116
lradius 17.8866
lwrist -6.93309
lhand -24.3922 -11.6553
lfingers 7.12502
lthumb 2.09859 18.3141
rfemur -17.5654 7.45461 14.1684
rtibia 6.77887
rfoot -20.6507 -7.46211
rtoes -23.9755
lfemur -18.2826 -10.9528 -23.7226
ltibia 7.51159
lfoot -8.79192 2.35651
ltoes -43.6223
530
root 9.56111 16.26 13.2025 -157.164 0.042524 175.492
lowerback -28.221 -2.39407 -9.37643
upperback -2.33121 -0.926818 -1.25034
thorax 12.3538 -1.24733 3.30939
lowerneck 3.26234 -3.518 -2.34872
upperneck -12.9359 -3.58315 6.87527
head -4.21296 -1.79775 2.63821
rclavicle 1.81391e-014 5.56597e-015
rhumerus -31.3326 -15.9899 -83.6176
rradius 28.0449
rwrist 1.16432
rhand -8.23357 -52.6576
rfingers 7.12502
rthumb 17.6841 -81.8735
lclavicle 1.81391e-014 5.56597e-015
lhumerus -26.3351 -1.09056 87.9355
lradius 17.8036
lwrist -7.27766
lhand -24.2471 -11.6922
lfingers 7.12502
lthumb 2.23874 18.2758
rfemur -17.5918 7.48484 14.1332
rtibia 6.80264
rfoot -20.656 -7.48092
rtoes -24.0671
lfemur -18.2871 -10.8765 -23.7639
ltibia 7.49609
lfoot -8.74455 2.38538
ltoes -44.2842
